{
  "root": "../btsync-data/nomudo-dl/",
  "port": 3030,
  "users": [
    {
      "username": "david",
      "password": "nomudopass",
      "jobs": [
        {
          "start": 1536530121224,
          "end": 1536530146832,
          "running": false,
          "out": "",
          "err": null,
          "url": "https://www.youtube.com/watch?v=qWfmauNs_p8",
          "target": "/home/david/btsync-data/nomudo-dl",
          "progress": "success"
        },
        {
          "start": 1536530258719,
          "end": 1536530281209,
          "running": false,
          "out": "",
          "err": null,
          "url": "https://www.youtube.com/watch?v=qWfmauNs_p8",
          "target": "/home/david/btsync-data/nomudo-dl",
          "progress": "success"
        },
        {
          "start": 1536530510025,
          "end": 1536530531204,
          "running": false,
          "out": "",
          "err": null,
          "url": "https://www.youtube.com/watch?v=L5LQveHQBBk",
          "target": "/home/david/btsync-data/nomudo-dl",
          "progress": "success"
        },
        {
          "start": 1536530576453,
          "end": 1536530596684,
          "running": false,
          "out": "",
          "err": null,
          "url": " https://www.youtube.com/watch?v=L5LQveHQBBk",
          "target": "/home/david/btsync-data/nomudo-dl",
          "progress": "success"
        },
        {
          "start": 1536530987974,
          "end": 1536531009006,
          "running": false,
          "out": "",
          "err": null,
          "url": "https://www.youtube.com/watch?v=5fE7c5mlioY",
          "target": "/home/david/btsync-data/nomudo-dl",
          "progress": "success",
          "filename": "_999999999 - X0004000X [NTNLTD001X].mp4"
        },
        {
          "start": 1536531437463,
          "end": 1536532057342,
          "running": false,
          "out": "",
          "err": "",
          "url": "https://www.youtube.com/watch?v=lSqGWbGJ5dk&index=21&t=0s",
          "target": "/home/david/btsync-data/nomudo-dl",
          "progress": "failure"
        },
        {
          "start": 1536532524311,
          "end": 1536532553861,
          "running": false,
          "out": "",
          "err": null,
          "url": "https://www.youtube.com/watch?v=lSqGWbGJ5dk&index=21&t=0s",
          "target": "/home/david/btsync-data/nomudo-dl",
          "progress": "success",
          "filename": "_Mørbeck - Brain Hack [GC001].mp4"
        },
        {
          "start": 1536532737210,
          "end": 1536533017394,
          "running": false,
          "out": "",
          "err": "",
          "url": "https://www.youtube.com/watch?v=AY22R9oOIoM&index=31&t=0s",
          "target": "/home/david/btsync-data/nomudo-dl",
          "progress": "failure",
          "filename": "_Boston 168 - Oblivion [ODDEVEN004].mp4"
        },
        {
          "start": 1536532764677,
          "end": 1536533017394,
          "running": false,
          "out": "",
          "err": "",
          "url": "https://www.youtube.com/watch?v=iCZljE6T72E&index=36&t=0s",
          "target": "/home/david/btsync-data/nomudo-dl",
          "progress": "failure",
          "filename": "_Boston 168 - Oblivion [ODDEVEN004].mp4"
        },
        {
          "start": 1536533037691,
          "end": 1536533064161,
          "running": false,
          "out": "",
          "err": null,
          "url": "https://www.youtube.com/watch?v=AY22R9oOIoM&index=31&t=0s",
          "target": "/home/david/btsync-data/nomudo-dl",
          "progress": "success",
          "filename": "_Tessela - Hackney Parrot (10_Ton_Mix).mp4"
        },
        {
          "start": 1536533042644,
          "end": 1536533071955,
          "running": false,
          "out": "",
          "err": null,
          "url": "https://www.youtube.com/watch?v=iCZljE6T72E&index=36&t=0s",
          "target": "/home/david/btsync-data/nomudo-dl",
          "progress": "success",
          "filename": "_Craig Richards - My Friend Is Losing His Mind.mp4"
        },
        {
          "start": 1536533077096,
          "end": 1536533097123,
          "running": false,
          "out": "",
          "err": null,
          "url": "https://www.youtube.com/watch?v=L5LQveHQBBk&index=11&t=0s",
          "target": "/home/david/btsync-data/nomudo-dl",
          "progress": "success",
          "filename": "_Imatran Voima - In_Out (by John Carton).mp4"
        },
        {
          "start": 1536536850864,
          "end": 1536536855551,
          "running": false,
          "out": "",
          "err": "ERROR: u'e.preventDefault();' is not a valid URL. Set --default-search \"ytsearch\" (or run  youtube-dl \"ytsearch:e.preventDefault();\" ) to search YouTube\n",
          "url": "e.preventDefault();",
          "target": "/home/david/btsync-data/nomudo-dl",
          "progress": "failure"
        },
        {
          "start": 1536536868002,
          "end": 1536536888834,
          "running": false,
          "out": "",
          "err": null,
          "url": "https://www.youtube.com/watch?v=L5LQveHQBBk&index=11&t=0s",
          "target": "/home/david/btsync-data/nomudo-dl",
          "progress": "success",
          "filename": "_Imatran Voima - In_Out (by John Carton).mp4"
        },
        {
          "start": 1536537551168,
          "end": 1536537906403,
          "running": false,
          "out": "",
          "err": null,
          "url": "https://www.youtube.com/watch?v=o6jYZ5Aw4eQ&index=15",
          "target": "/home/david/btsync-data/nomudo-dl",
          "progress": "success",
          "filename": "_REX THE DOG (live) & DEMIAN in The Lab LDN [Kompakt].mp4"
        },
        {
          "start": 1536559100008,
          "end": 1536559118754,
          "running": false,
          "out": "[generic] set-from-wonderland-festival-at-ade-2017: Requesting header\n[generic] set-from-wonderland-festival-at-ade-2017: Downloading webpage\n[generic] set-from-wonderland-festival-at-ade-2017: Extracting information\n",
          "err": "WARNING: Falling back on generic information extractor.\nERROR: Unsupported URL: https://www.pocketbeat.com/artists/rebekah/set-from-wonderland-festival-at-ade-2017/\n",
          "url": "https://www.pocketbeat.com/artists/rebekah/set-from-wonderland-festival-at-ade-2017/",
          "target": "/home/david/btsync-data/nomudo-dl",
          "progress": "failure"
        },
        {
          "start": 1536559197315,
          "end": 1536559202750,
          "running": false,
          "out": "",
          "err": null,
          "url": "https://coderising.bandcamp.com/track/retro-miami",
          "target": "/home/david/btsync-data/nomudo-dl",
          "progress": "success",
          "filename": "_Code Rising - Retro Miami.mp3"
        },
        {
          "start": 1536559246119,
          "end": 1536559262298,
          "running": false,
          "out": "",
          "err": null,
          "url": "https://m.youtube.com/watch?v=-rnVsNZznXA",
          "target": "/home/david/btsync-data/nomudo-dl",
          "progress": "success",
          "filename": "_The Telstars  - Bublitchki.mp4"
        },
        {
          "start": 1536559307675,
          "end": 1536559328393,
          "running": false,
          "out": "",
          "err": null,
          "url": "https://m.youtube.com/watch?v=fGqiBFqWCTU",
          "target": "/home/david/btsync-data/nomudo-dl",
          "progress": "success",
          "filename": "_Cybotron - Clear.mp4"
        },
        {
          "start": 1536559436346,
          "end": 1536559446043,
          "running": false,
          "out": "",
          "err": null,
          "url": "https://domestica.bandcamp.com/album/night-moves-transdance-gc1-2013-ref-dom05-m",
          "target": "/home/david/btsync-data/nomudo-dl",
          "progress": "success",
          "filename": "_Night Moves - A. TransDance (GC1 Version).mp3"
        },
        {
          "start": 1536559701636,
          "end": 1536559705516,
          "running": false,
          "out": "[Bandcamp] a-transdance-gc1-version: Downloading webpage\n[download] /home/david/btsync-data/nomudo-dl/_Night Moves - A. TransDance (GC1 Version).mp3 has already been downloaded\n\r[download] 100% of 5.07MiB\n[ffmpeg] Post-process file /home/david/btsync-data/nomudo-dl/_Night Moves - A. TransDance (GC1 Version).mp3 exists, skipping\n",
          "err": null,
          "url": "https://domestica.bandcamp.com/track/a-transdance-gc1-version",
          "target": "/home/david/btsync-data/nomudo-dl",
          "progress": "success"
        },
        {
          "start": 1536559769297,
          "end": 1536559790359,
          "running": false,
          "out": "",
          "err": null,
          "url": "https://m.youtube.com/watch?v=ocXzdQh7whc",
          "target": "/home/david/btsync-data/nomudo-dl",
          "progress": "success",
          "filename": "_Night Moves - Transdance.mp4"
        },
        {
          "start": 1536559813329,
          "end": 1536559837596,
          "running": false,
          "out": "",
          "err": null,
          "url": "https://m.youtube.com/watch?v=gGJGS3vaHFM",
          "target": "/home/david/btsync-data/nomudo-dl",
          "progress": "success",
          "filename": "_Sub Space - Dimension Ghost.mp4"
        },
        {
          "start": 1536559910867,
          "end": 1536559936550,
          "running": false,
          "out": "",
          "err": null,
          "url": "https://m.youtube.com/watch?t=0s&index=180&v=-orq4Px6TWg",
          "target": "/home/david/btsync-data/nomudo-dl",
          "progress": "success",
          "filename": "_MetaComplex -- Memory Host.mp4"
        },
        {
          "start": 1536559954482,
          "end": 1536559985451,
          "running": false,
          "out": "",
          "err": null,
          "url": "https://m.youtube.com/watch?feature=youtu.be&v=JwVzkcOBpag",
          "target": "/home/david/btsync-data/nomudo-dl",
          "progress": "success",
          "filename": "_Elektrodos Recordings   Sigma Algebra   Fuzzy Sets RXmode remix=2018.mp4"
        },
        {
          "start": 1536568007323,
          "end": 1536568276777,
          "running": false,
          "out": "",
          "err": null,
          "url": "https://www.youtube.com/watch?v=EvTI27hqFW4",
          "target": "/home/david/btsync-data/nomudo-dl",
          "progress": "success",
          "filename": "_Dave Clarke ‎– World Service 2 (CD 1 -  Electro Side).mp4"
        },
        {
          "start": 1536568160455,
          "end": 1536568548066,
          "running": false,
          "out": "",
          "err": "ffmpeg version 3.1.1-static http://johnvansickle.com/ffmpeg/  Copyright (c) 2000-2016 the FFmpeg developers\n  built with gcc 5.4.0 (Debian 5.4.0-4) 20160609\n  configuration: --enable-gpl --enable-version3 --enable-static --disable-debug --enable-libmp3lame --enable-libx264 --enable-libx265 --enable-libwebp --enable-libspeex --enable-libvorbis --enable-libvpx --enable-libfreetype --enable-fontconfig --enable-libxvid --enable-libopencore-amrnb --enable-libopencore-amrwb --enable-libtheora --enable-libvo-amrwbenc --enable-gray --enable-libopenjpeg --enable-libopus --enable-libass --enable-gnutls --enable-libvidstab --enable-libsoxr --enable-frei0r --enable-libfribidi --disable-indev=sndio --disable-outdev=sndio --enable-librtmp --enable-libmfx --enable-libzimg --cc=gcc\n  libavutil      55. 28.100 / 55. 28.100\n  libavcodec     57. 48.101 / 57. 48.101\n  libavformat    57. 41.100 / 57. 41.100\n  libavdevice    57.  0.101 / 57.  0.101\n  libavfilter     6. 47.100 /  6. 47.100\n  libswscale      4.  1.100 /  4.  1.100\n  libswresample   2.  1.100 /  2.  1.100\n  libpostproc    54.  0.100 / 54.  0.100\nInput #0, hls,applehttp, from 'https://cdn.pocketbeat.com/vod/smil:1064_2bd3138c4c00479c8c97473a8a9551d5-HD-68211677FD174239B6CD9897EF91DF7E.smil/chunklist_b2725358_sleng.m3u8':\n  Duration: 01:08:47.65, start: 0.000000, bitrate: 0 kb/s\n  Program 0 \n    Metadata:\n      variant_bitrate : 0\n    Stream #0:0: Data: timed_id3 (ID3  / 0x20334449)\n    Stream #0:1: Video: h264 (Main) ([27][0][0][0] / 0x001B), yuv420p, 1280x720 [SAR 1:1 DAR 16:9], 30 fps, 30 tbr, 90k tbn, 60 tbc\n    Stream #0:2: Audio: aac (LC) ([15][0][0][0] / 0x000F), 44100 Hz, stereo, fltp, 216 kb/s\n[mp4 @ 0x5b2fae0] Using AVStream.codec to pass codec parameters to muxers is deprecated, use AVStream.codecpar instead.\n    Last message repeated 1 times\nOutput #0, mp4, to 'file:/home/david/btsync-data/nomudo-dl/_playlist.mp4.part':\n  Metadata:\n    encoder         : Lavf57.41.100\n    Stream #0:0: Video: h264 ([33][0][0][0] / 0x0021), yuv420p, 1280x720 [SAR 1:1 DAR 16:9], q=2-31, 30 fps, 30 tbr, 90k tbn, 90k tbc\n    Stream #0:1: Audio: aac (LC) ([64][0][0][0] / 0x0040), 44100 Hz, stereo, 216 kb/s\nStream mapping:\n  Stream #0:1 -> #0:0 (copy)\n  Stream #0:2 -> #0:1 (copy)\nPress [q] to stop, [?] for help\nframe=  577 fps=0.0 q=-1.0 size=    6534kB time=00:00:19.20 bitrate=2787.6kbits/s speed=30.1x    \rframe= 1153 fps=845 q=-1.0 size=   12942kB time=00:00:38.40 bitrate=2760.5kbits/s speed=28.2x    \rframe= 1729 fps=905 q=-1.0 size=   19487kB time=00:00:57.60 bitrate=2771.0kbits/s speed=30.2x    \rframe= 2174 fps=901 q=-1.0 size=   24550kB time=00:01:12.44 bitrate=2776.0kbits/s speed=  30x    \rframe= 2593 fps=883 q=-1.0 size=   29130kB time=00:01:26.40 bitrate=2761.9kbits/s speed=29.4x    \rframe= 2908 fps=846 q=-1.0 size=   32707kB time=00:01:36.94 bitrate=2763.9kbits/s speed=28.2x    \rframe= 3457 fps=848 q=-1.0 size=   38888kB time=00:01:55.21 bitrate=2764.9kbits/s speed=28.3x    \rframe= 4031 fps=879 q=-1.0 size=   45270kB time=00:02:14.37 bitrate=2759.9kbits/s speed=29.3x    \rframe= 4344 fps=854 q=-1.0 size=   48784kB time=00:02:24.82 bitrate=2759.5kbits/s speed=28.5x    \rframe= 4609 fps=823 q=-1.0 size=   51835kB time=00:02:33.62 bitrate=2764.1kbits/s speed=27.4x    \rframe= 5185 fps=835 q=-1.0 size=   58391kB time=00:02:52.80 bitrate=2768.1kbits/s speed=27.8x    \rframe= 5761 fps=854 q=-1.0 size=   64819kB time=00:03:12.00 bitrate=2765.5kbits/s speed=28.5x    \rframe= 6337 fps=862 q=-1.0 size=   71093kB time=00:03:31.20 bitrate=2757.4kbits/s speed=28.7x    \rframe= 6913 fps=871 q=-1.0 size=   77684kB time=00:03:50.41 bitrate=2762.0kbits/s speed=  29x    \rframe= 7489 fps=869 q=-1.0 size=   84234kB time=00:04:09.61 bitrate=2764.4kbits/s speed=  29x    \rframe= 7777 fps=851 q=-1.0 size=   87497kB time=00:04:19.20 bitrate=2765.3kbits/s speed=28.3x    \rframe= 8297 fps=860 q=-1.0 size=   93367kB time=00:04:36.54 bitrate=2765.7kbits/s speed=28.7x    \rframe= 8641 fps=847 q=-1.0 size=   97307kB time=00:04:48.02 bitrate=2767.6kbits/s speed=28.2x    \rframe= 9183 fps=858 q=-1.0 size=  103485kB time=00:05:06.10 bitrate=2769.4kbits/s speed=28.6x    \rframe= 9505 fps=840 q=-1.0 size=  107146kB time=00:05:16.81 bitrate=2770.5kbits/s speed=  28x    \rframe= 9914 fps=839 q=-1.0 size=  111809kB time=00:05:30.44 bitrate=2771.9kbits/s speed=  28x    \rframe=10369 fps=833 q=-1.0 size=  116928kB time=00:05:45.60 bitrate=2771.6kbits/s speed=27.7x    \rframe=10760 fps=830 q=-1.0 size=  121222kB time=00:05:58.65 bitrate=2768.8kbits/s speed=27.7x    \rframe=11135 fps=827 q=-1.0 size=  125523kB time=00:06:11.14 bitrate=2770.6kbits/s speed=27.6x    \rframe=11495 fps=823 q=-1.0 size=  129272kB time=00:06:23.15 bitrate=2763.9kbits/s speed=27.4x    \rframe=11809 fps=812 q=-1.0 size=  132817kB time=00:06:33.60 bitrate=2764.3kbits/s speed=27.1x    \rframe=12385 fps=815 q=-1.0 size=  139172kB time=00:06:52.80 bitrate=2761.8kbits/s speed=27.2x    \rframe=12705 fps=809 q=-1.0 size=  142772kB time=00:07:03.48 bitrate=2761.8kbits/s speed=  27x    \rframe=13082 fps=807 q=-1.0 size=  146935kB time=00:07:16.04 bitrate=2760.5kbits/s speed=26.9x    \rframe=13369 fps=800 q=-1.0 size=  150057kB time=00:07:25.61 bitrate=2758.6kbits/s speed=26.7x    \rframe=13694 fps=795 q=-1.0 size=  153706kB time=00:07:36.45 bitrate=2758.5kbits/s speed=26.5x    \rframe=14037 fps=792 q=-1.0 size=  157187kB time=00:07:47.86 bitrate=2752.2kbits/s speed=26.4x    \rframe=14329 fps=786 q=-1.0 size=  160375kB time=00:07:57.61 bitrate=2750.7kbits/s speed=26.2x    \rframe=14587 fps=779 q=-1.0 size=  163250kB time=00:08:06.22 bitrate=2750.5kbits/s speed=  26x    \rframe=14977 fps=775 q=-1.0 size=  167729kB time=00:08:19.20 bitrate=2752.4kbits/s speed=25.8x    \rframe=15359 fps=775 q=-1.0 size=  171877kB time=00:08:32.00 bitrate=2750.0kbits/s speed=25.8x    \rframe=15641 fps=769 q=-1.0 size=  175117kB time=00:08:41.35 bitrate=2751.6kbits/s speed=25.6x    \rframe=16129 fps=769 q=-1.0 size=  180655kB time=00:08:57.61 bitrate=2752.8kbits/s speed=25.6x    \rframe=16417 fps=762 q=-1.0 size=  183903kB time=00:09:07.20 bitrate=2753.2kbits/s speed=25.4x    \rframe=16705 fps=756 q=-1.0 size=  187091kB time=00:09:16.81 bitrate=2752.5kbits/s speed=25.2x    \rframe=16993 fps=748 q=-1.0 size=  190303kB time=00:09:26.40 bitrate=2752.4kbits/s speed=24.9x    \rframe=17359 fps=747 q=-1.0 size=  194437kB time=00:09:38.60 bitrate=2752.9kbits/s speed=24.9x    \rframe=17573 fps=741 q=-1.0 size=  196915kB time=00:09:45.74 bitrate=2754.0kbits/s speed=24.7x    \rframe=17968 fps=741 q=-1.0 size=  201297kB time=00:09:58.93 bitrate=2753.3kbits/s speed=24.7x    \rframe=18216 fps=736 q=-1.0 size=  204172kB time=00:10:07.20 bitrate=2754.6kbits/s speed=24.5x    \rframe=18469 fps=732 q=-1.0 size=  207021kB time=00:10:15.65 bitrate=2754.7kbits/s speed=24.4x    \rframe=19009 fps=734 q=-1.0 size=  213129kB time=00:10:33.60 bitrate=2755.6kbits/s speed=24.5x    \rframe=19585 fps=737 q=-1.0 size=  219637kB time=00:10:52.80 bitrate=2756.2kbits/s speed=24.6x    \rframe=19876 fps=734 q=-1.0 size=  222868kB time=00:11:02.50 bitrate=2755.8kbits/s speed=24.5x    \rframe=20278 fps=735 q=-1.0 size=  227151kB time=00:11:15.90 bitrate=2753.1kbits/s speed=24.5x    \rframe=20667 fps=736 q=-1.0 size=  231335kB time=00:11:28.88 bitrate=2750.9kbits/s speed=24.5x    \rframe=21025 fps=733 q=-1.0 size=  235165kB time=00:11:40.80 bitrate=2749.0kbits/s speed=24.4x    \rframe=21313 fps=729 q=-1.0 size=  238395kB time=00:11:50.41 bitrate=2749.0kbits/s speed=24.3x    \rframe=21666 fps=728 q=-1.0 size=  242266kB time=00:12:02.18 bitrate=2748.1kbits/s speed=24.3x    \rframe=21927 fps=725 q=-1.0 size=  245217kB time=00:12:10.87 bitrate=2748.5kbits/s speed=24.2x    \rframe=22188 fps=721 q=-1.0 size=  248113kB time=00:12:19.56 bitrate=2748.3kbits/s speed=  24x    \rframe=22543 fps=721 q=-1.0 size=  251998kB time=00:12:31.42 bitrate=2747.3kbits/s speed=  24x    \rframe=22793 fps=717 q=-1.0 size=  254950kB time=00:12:39.75 bitrate=2749.0kbits/s speed=23.9x    \rframe=23067 fps=714 q=-1.0 size=  258081kB time=00:12:48.86 bitrate=2749.8kbits/s speed=23.8x    \rframe=23352 fps=712 q=-1.0 size=  261235kB time=00:12:58.40 bitrate=2749.3kbits/s speed=23.7x    \rframe=23895 fps=718 q=-1.0 size=  267286kB time=00:13:16.46 bitrate=2749.2kbits/s speed=23.9x    \rframe=24144 fps=714 q=-1.0 size=  270155kB time=00:13:24.78 bitrate=2750.0kbits/s speed=23.8x    \rframe=24387 fps=711 q=-1.0 size=  272927kB time=00:13:32.88 bitrate=2750.5kbits/s speed=23.7x    \rframe=24769 fps=708 q=-1.0 size=  277249kB time=00:13:45.60 bitrate=2751.0kbits/s speed=23.6x    \rframe=25343 fps=714 q=-1.0 size=  283611kB time=00:14:04.73 bitrate=2750.4kbits/s speed=23.8x    \rframe=25633 fps=711 q=-1.0 size=  286968kB time=00:14:14.40 bitrate=2751.4kbits/s speed=23.7x    \rframe=25921 fps=708 q=-1.0 size=  290299kB time=00:14:24.01 bitrate=2752.4kbits/s speed=23.6x    \rframe=26230 fps=706 q=-1.0 size=  293800kB time=00:14:34.30 bitrate=2752.8kbits/s speed=23.5x    \rframe=26742 fps=710 q=-1.0 size=  299578kB time=00:14:51.36 bitrate=2753.2kbits/s speed=23.7x    \rframe=27002 fps=708 q=-1.0 size=  302598kB time=00:15:00.05 bitrate=2754.2kbits/s speed=23.6x    \rframe=27361 fps=706 q=-1.0 size=  306627kB time=00:15:12.01 bitrate=2754.2kbits/s speed=23.5x    \rframe=27710 fps=705 q=-1.0 size=  310636kB time=00:15:23.64 bitrate=2755.1kbits/s speed=23.5x    \rframe=27983 fps=703 q=-1.0 size=  313771kB time=00:15:32.76 bitrate=2755.7kbits/s speed=23.4x    \rframe=28242 fps=701 q=-1.0 size=  316506kB time=00:15:41.38 bitrate=2754.3kbits/s speed=23.4x    \rframe=28664 fps=703 q=-1.0 size=  321241kB time=00:15:55.45 bitrate=2754.3kbits/s speed=23.4x    \rframe=29033 fps=703 q=-1.0 size=  325106kB time=00:16:07.76 bitrate=2752.0kbits/s speed=23.4x    \rframe=29255 fps=700 q=-1.0 size=  327639kB time=00:16:15.13 bitrate=2752.5kbits/s speed=23.3x    \rframe=29496 fps=697 q=-1.0 size=  330282kB time=00:16:23.17 bitrate=2752.0kbits/s speed=23.2x    \rframe=29757 fps=695 q=-1.0 size=  333375kB time=00:16:31.91 bitrate=2753.3kbits/s speed=23.2x    \rframe=30225 fps=698 q=-1.0 size=  338275kB time=00:16:47.46 bitrate=2750.6kbits/s speed=23.3x    \rframe=30529 fps=697 q=-1.0 size=  341830kB time=00:16:57.61 bitrate=2751.8kbits/s speed=23.2x    \rframe=30919 fps=697 q=-1.0 size=  346034kB time=00:17:10.61 bitrate=2750.5kbits/s speed=23.2x    \rframe=31206 fps=696 q=-1.0 size=  349336kB time=00:17:20.16 bitrate=2751.3kbits/s speed=23.2x    \rframe=31506 fps=695 q=-1.0 size=  352716kB time=00:17:30.16 bitrate=2751.4kbits/s speed=23.2x    \rframe=31969 fps=696 q=-1.0 size=  357578kB time=00:17:45.61 bitrate=2748.9kbits/s speed=23.2x    \rframe=32310 fps=695 q=-1.0 size=  361532kB time=00:17:56.96 bitrate=2750.0kbits/s speed=23.2x    \rframe=32583 fps=694 q=-1.0 size=  364617kB time=00:18:06.11 bitrate=2750.1kbits/s speed=23.1x    \rframe=32833 fps=692 q=-1.0 size=  367490kB time=00:18:14.44 bitrate=2750.7kbits/s speed=23.1x    \rframe=33169 fps=691 q=-1.0 size=  371172kB time=00:18:25.61 bitrate=2750.2kbits/s speed=  23x    \rframe=33532 fps=692 q=-1.0 size=  375260kB time=00:18:37.71 bitrate=2750.4kbits/s speed=23.1x    \rframe=33791 fps=690 q=-1.0 size=  378225kB time=00:18:46.40 bitrate=2750.7kbits/s speed=  23x    \rframe=33985 fps=686 q=-1.0 size=  380360kB time=00:18:52.80 bitrate=2750.6kbits/s speed=22.9x    \rframe=34533 fps=690 q=-1.0 size=  386627kB time=00:19:11.08 bitrate=2751.5kbits/s speed=  23x    \rframe=34849 fps=689 q=-1.0 size=  390245kB time=00:19:21.60 bitrate=2752.1kbits/s speed=  23x    \rframe=35196 fps=689 q=-1.0 size=  394154kB time=00:19:33.16 bitrate=2752.3kbits/s speed=  23x    \rframe=35548 fps=689 q=-1.0 size=  398189kB time=00:19:44.91 bitrate=2752.9kbits/s speed=  23x    \rframe=36001 fps=689 q=-1.0 size=  403147kB time=00:20:00.00 bitrate=2752.1kbits/s speed=  23x    \rframe=36289 fps=687 q=-1.0 size=  406436kB time=00:20:09.62 bitrate=2752.5kbits/s speed=22.9x    \rframe=36577 fps=686 q=-1.0 size=  409705kB time=00:20:19.21 bitrate=2752.9kbits/s speed=22.9x    \rframe=36865 fps=684 q=-1.0 size=  413033kB time=00:20:28.82 bitrate=2753.5kbits/s speed=22.8x    \rframe=37235 fps=684 q=-1.0 size=  416829kB time=00:20:41.15 bitrate=2751.2kbits/s speed=22.8x    \rframe=37499 fps=683 q=-1.0 size=  419527kB time=00:20:49.97 bitrate=2749.5kbits/s speed=22.8x    \rframe=37729 fps=680 q=-1.0 size=  422185kB time=00:20:57.61 bitrate=2750.1kbits/s speed=22.7x    \rframe=38236 fps=683 q=-1.0 size=  427381kB time=00:21:14.52 bitrate=2747.0kbits/s speed=22.8x    \rframe=38542 fps=683 q=-1.0 size=  430500kB time=00:21:24.71 bitrate=2745.1kbits/s speed=22.8x    \rframe=38881 fps=681 q=-1.0 size=  434336kB time=00:21:36.02 bitrate=2745.4kbits/s speed=22.7x    \rframe=39236 fps=682 q=-1.0 size=  438412kB time=00:21:47.84 bitrate=2746.1kbits/s speed=22.7x    \rframe=39484 fps=680 q=-1.0 size=  441178kB time=00:21:56.10 bitrate=2746.1kbits/s speed=22.7x    \rframe=39806 fps=680 q=-1.0 size=  444835kB time=00:22:06.85 bitrate=2746.4kbits/s speed=22.7x    \rframe=40196 fps=680 q=-1.0 size=  449119kB time=00:22:19.88 bitrate=2745.9kbits/s speed=22.7x    \rframe=40440 fps=679 q=-1.0 size=  451898kB time=00:22:27.98 bitrate=2746.3kbits/s speed=22.6x    \rframe=40782 fps=679 q=-1.0 size=  455798kB time=00:22:39.38 bitrate=2746.7kbits/s speed=22.6x    \rframe=40897 fps=675 q=-1.0 size=  457026kB time=00:22:43.22 bitrate=2746.4kbits/s speed=22.5x    \rframe=41342 fps=677 q=-1.0 size=  461843kB time=00:22:58.03 bitrate=2745.5kbits/s speed=22.6x    \rframe=41761 fps=677 q=-1.0 size=  465890kB time=00:23:12.01 bitrate=2741.8kbits/s speed=22.6x    \rframe=42143 fps=677 q=-1.0 size=  470239kB time=00:23:24.76 bitrate=2742.2kbits/s speed=22.6x    \rframe=42538 fps=678 q=-1.0 size=  474655kB time=00:23:37.90 bitrate=2742.3kbits/s speed=22.6x    \rframe=42913 fps=677 q=-1.0 size=  478704kB time=00:23:50.41 bitrate=2741.5kbits/s speed=22.6x    \rframe=43201 fps=676 q=-1.0 size=  481990kB time=00:24:00.00 bitrate=2742.0kbits/s speed=22.5x    \rframe=43489 fps=666 q=-1.0 size=  485144kB time=00:24:09.62 bitrate=2741.6kbits/s speed=22.2x    \rframe=44065 fps=666 q=-1.0 size=  491236kB time=00:24:28.80 bitrate=2739.8kbits/s speed=22.2x    \rframe=44385 fps=663 q=-1.0 size=  494758kB time=00:24:39.46 bitrate=2739.5kbits/s speed=22.1x    \rframe=44844 fps=665 q=-1.0 size=  499885kB time=00:24:54.78 bitrate=2739.6kbits/s speed=22.2x    \rframe=45168 fps=665 q=-1.0 size=  503485kB time=00:25:05.58 bitrate=2739.5kbits/s speed=22.2x    \rframe=45505 fps=664 q=-1.0 size=  507036kB time=00:25:16.82 bitrate=2738.4kbits/s speed=22.1x    \rframe=45818 fps=664 q=-1.0 size=  510482kB time=00:25:27.24 bitrate=2738.2kbits/s speed=22.1x    \rframe=46224 fps=665 q=-1.0 size=  514573kB time=00:25:40.76 bitrate=2735.9kbits/s speed=22.2x    \rframe=46509 fps=664 q=-1.0 size=  517865kB time=00:25:50.30 bitrate=2736.5kbits/s speed=22.1x    \rframe=46828 fps=664 q=-1.0 size=  521054kB time=00:26:00.91 bitrate=2734.6kbits/s speed=22.1x    \rframe=47113 fps=663 q=-1.0 size=  524187kB time=00:26:10.40 bitrate=2734.4kbits/s speed=22.1x    \rframe=47404 fps=662 q=-1.0 size=  527349kB time=00:26:20.11 bitrate=2734.0kbits/s speed=22.1x    \rframe=47809 fps=662 q=-1.0 size=  531355kB time=00:26:33.60 bitrate=2731.5kbits/s speed=22.1x    \rframe=48185 fps=662 q=-1.0 size=  535702kB time=00:26:46.17 bitrate=2732.3kbits/s speed=22.1x    \rframe=48385 fps=660 q=-1.0 size=  538038kB time=00:26:52.81 bitrate=2732.9kbits/s speed=  22x    \rframe=48769 fps=660 q=-1.0 size=  541473kB time=00:27:05.60 bitrate=2728.7kbits/s speed=  22x    \rframe=49018 fps=659 q=-1.0 size=  544213kB time=00:27:13.91 bitrate=2728.5kbits/s speed=  22x    \rframe=49537 fps=660 q=-1.0 size=  550188kB time=00:27:31.21 bitrate=2729.6kbits/s speed=  22x    \rframe=49825 fps=659 q=-1.0 size=  553476kB time=00:27:40.80 bitrate=2730.0kbits/s speed=  22x    \rframe=50187 fps=659 q=-1.0 size=  557569kB time=00:27:52.88 bitrate=2730.4kbits/s speed=  22x    \rframe=50410 fps=658 q=-1.0 size=  560151kB time=00:28:00.31 bitrate=2730.9kbits/s speed=21.9x    \rframe=50815 fps=659 q=-1.0 size=  564716kB time=00:28:13.84 bitrate=2731.1kbits/s speed=  22x    \rframe=51265 fps=659 q=-1.0 size=  569600kB time=00:28:28.80 bitrate=2730.7kbits/s speed=  22x    \rframe=51821 fps=662 q=-1.0 size=  575327kB time=00:28:47.33 bitrate=2728.5kbits/s speed=22.1x    \rframe=52052 fps=660 q=-1.0 size=  578031kB time=00:28:55.06 bitrate=2729.1kbits/s speed=  22x    \rframe=52417 fps=660 q=-1.0 size=  582306kB time=00:29:07.20 bitrate=2730.2kbits/s speed=  22x    \rframe=52751 fps=660 q=-1.0 size=  586045kB time=00:29:18.35 bitrate=2730.3kbits/s speed=  22x    \rframe=52997 fps=659 q=-1.0 size=  588733kB time=00:29:26.55 bitrate=2730.1kbits/s speed=  22x    \rframe=53392 fps=659 q=-1.0 size=  593236kB time=00:29:39.71 bitrate=2730.7kbits/s speed=  22x    \rframe=53718 fps=659 q=-1.0 size=  596846kB time=00:29:50.58 bitrate=2730.6kbits/s speed=  22x    \rframe=54085 fps=660 q=-1.0 size=  601017kB time=00:30:02.84 bitrate=2731.0kbits/s speed=  22x    \rframe=54433 fps=658 q=-1.0 size=  604958kB time=00:30:14.40 bitrate=2731.4kbits/s speed=21.9x    \rframe=54769 fps=658 q=-1.0 size=  608777kB time=00:30:25.62 bitrate=2731.7kbits/s speed=21.9x    \rframe=55018 fps=657 q=-1.0 size=  611602kB time=00:30:33.91 bitrate=2732.0kbits/s speed=21.9x    \rframe=55343 fps=657 q=-1.0 size=  615283kB time=00:30:44.75 bitrate=2732.3kbits/s speed=21.9x    \rframe=55757 fps=658 q=-1.0 size=  619270kB time=00:30:58.53 bitrate=2729.6kbits/s speed=21.9x    \rframe=56161 fps=657 q=-1.0 size=  623738kB time=00:31:12.01 bitrate=2729.5kbits/s speed=21.9x    \rframe=56449 fps=657 q=-1.0 size=  626908kB time=00:31:21.60 bitrate=2729.4kbits/s speed=21.9x    \rframe=56928 fps=658 q=-1.0 size=  632302kB time=00:31:37.60 bitrate=2729.7kbits/s speed=21.9x    \rframe=57313 fps=658 q=-1.0 size=  636652kB time=00:31:50.42 bitrate=2730.0kbits/s speed=21.9x    \rframe=57601 fps=657 q=-1.0 size=  639342kB time=00:32:00.01 bitrate=2727.8kbits/s speed=21.9x    \rframe=57889 fps=656 q=-1.0 size=  642616kB time=00:32:09.60 bitrate=2728.2kbits/s speed=21.9x    \rframe=58192 fps=656 q=-1.0 size=  645418kB time=00:32:19.70 bitrate=2725.8kbits/s speed=21.9x    \rframe=58469 fps=655 q=-1.0 size=  648463kB time=00:32:28.94 bitrate=2725.7kbits/s speed=21.8x    \rframe=58944 fps=657 q=-1.0 size=  653208kB time=00:32:44.77 bitrate=2723.5kbits/s speed=21.9x    \rframe=59233 fps=657 q=-1.0 size=  656266kB time=00:32:54.41 bitrate=2722.9kbits/s speed=21.9x    \rframe=59434 fps=655 q=-1.0 size=  658037kB time=00:33:01.10 bitrate=2721.0kbits/s speed=21.8x    \rframe=59644 fps=654 q=-1.0 size=  660350kB time=00:33:08.13 bitrate=2720.9kbits/s speed=21.8x    \rframe=60041 fps=655 q=-1.0 size=  664656kB time=00:33:21.35 bitrate=2720.6kbits/s speed=21.8x    \rframe=60256 fps=653 q=-1.0 size=  667119kB time=00:33:28.50 bitrate=2721.0kbits/s speed=21.8x    \rframe=60500 fps=652 q=-1.0 size=  669893kB time=00:33:36.65 bitrate=2721.2kbits/s speed=21.7x    \rframe=60769 fps=652 q=-1.0 size=  672693kB time=00:33:45.61 bitrate=2720.5kbits/s speed=21.7x    \rframe=61197 fps=653 q=-1.0 size=  676315kB time=00:33:59.89 bitrate=2716.0kbits/s speed=21.8x    \rframe=61441 fps=652 q=-1.0 size=  678924kB time=00:34:08.02 bitrate=2715.7kbits/s speed=21.7x    \rframe=61873 fps=653 q=-1.0 size=  683834kB time=00:34:22.44 bitrate=2716.2kbits/s speed=21.8x    \rframe=62209 fps=652 q=-1.0 size=  687529kB time=00:34:33.61 bitrate=2716.1kbits/s speed=21.7x    \rframe=62497 fps=651 q=-1.0 size=  690724kB time=00:34:43.20 bitrate=2716.2kbits/s speed=21.7x    \rframe=62864 fps=652 q=-1.0 size=  694881kB time=00:34:55.46 bitrate=2716.6kbits/s speed=21.7x    \rframe=63159 fps=651 q=-1.0 size=  698139kB time=00:35:05.28 bitrate=2716.6kbits/s speed=21.7x    \rframe=63361 fps=644 q=-1.0 size=  700280kB time=00:35:12.01 bitrate=2716.2kbits/s speed=21.5x    \rframe=63937 fps=645 q=-1.0 size=  706809kB time=00:35:31.22 bitrate=2716.8kbits/s speed=21.5x    \rframe=64227 fps=645 q=-1.0 size=  710148kB time=00:35:40.92 bitrate=2717.3kbits/s speed=21.5x    \rframe=64539 fps=645 q=-1.0 size=  713632kB time=00:35:51.26 bitrate=2717.5kbits/s speed=21.5x    \rframe=64968 fps=646 q=-1.0 size=  718568kB time=00:36:05.63 bitrate=2718.1kbits/s speed=21.5x    \rframe=65265 fps=646 q=-1.0 size=  721880kB time=00:36:15.50 bitrate=2718.3kbits/s speed=21.5x    \rframe=65618 fps=646 q=-1.0 size=  725980kB time=00:36:27.27 bitrate=2719.0kbits/s speed=21.5x    \rframe=65953 fps=645 q=-1.0 size=  729688kB time=00:36:38.41 bitrate=2719.0kbits/s speed=21.5x    \rframe=66333 fps=646 q=-1.0 size=  733920kB time=00:36:51.12 bitrate=2719.1kbits/s speed=21.5x    \rframe=66663 fps=646 q=-1.0 size=  737685kB time=00:37:02.12 bitrate=2719.5kbits/s speed=21.5x    \rframe=66962 fps=646 q=-1.0 size=  741090kB time=00:37:12.08 bitrate=2719.9kbits/s speed=21.5x    \rframe=67393 fps=646 q=-1.0 size=  745945kB time=00:37:26.41 bitrate=2720.2kbits/s speed=21.5x    \rframe=67775 fps=646 q=-1.0 size=  750283kB time=00:37:39.13 bitrate=2720.6kbits/s speed=21.5x    \rframe=68111 fps=647 q=-1.0 size=  754059kB time=00:37:50.35 bitrate=2720.8kbits/s speed=21.6x    \rframe=68397 fps=646 q=-1.0 size=  757302kB time=00:37:59.89 bitrate=2721.1kbits/s speed=21.5x    \rframe=68752 fps=646 q=-1.0 size=  761095kB time=00:38:11.73 bitrate=2720.6kbits/s speed=21.5x    \rframe=69050 fps=646 q=-1.0 size=  764572kB time=00:38:21.65 bitrate=2721.2kbits/s speed=21.5x    \rframe=69409 fps=645 q=-1.0 size=  768657kB time=00:38:33.61 bitrate=2721.6kbits/s speed=21.5x    \rframe=69697 fps=645 q=-1.0 size=  771896kB time=00:38:43.20 bitrate=2721.8kbits/s speed=21.5x    \rframe=69996 fps=645 q=-1.0 size=  775183kB time=00:38:53.16 bitrate=2721.7kbits/s speed=21.5x    \rframe=70538 fps=647 q=-1.0 size=  781287kB time=00:39:11.27 bitrate=2722.1kbits/s speed=21.6x    \rframe=70849 fps=646 q=-1.0 size=  784833kB time=00:39:21.60 bitrate=2722.4kbits/s speed=21.5x    \rframe=71415 fps=648 q=-1.0 size=  791171kB time=00:39:40.50 bitrate=2722.6kbits/s speed=21.6x    \rframe=71713 fps=648 q=-1.0 size=  794555kB time=00:39:50.40 bitrate=2723.0kbits/s speed=21.6x    \rframe=72091 fps=648 q=-1.0 size=  798848kB time=00:40:03.00 bitrate=2723.3kbits/s speed=21.6x    \rframe=72316 fps=647 q=-1.0 size=  801409kB time=00:40:10.50 bitrate=2723.6kbits/s speed=21.6x    \rframe=72579 fps=647 q=-1.0 size=  804464kB time=00:40:19.28 bitrate=2724.0kbits/s speed=21.6x    \rframe=72865 fps=646 q=-1.0 size=  807658kB time=00:40:28.80 bitrate=2724.1kbits/s speed=21.5x    \rframe=73339 fps=647 q=-1.0 size=  812999kB time=00:40:44.66 bitrate=2724.3kbits/s speed=21.6x    \rframe=73729 fps=647 q=-1.0 size=  817524kB time=00:40:57.62 bitrate=2725.1kbits/s speed=21.6x    \rframe=74065 fps=648 q=-1.0 size=  821354kB time=00:41:08.83 bitrate=2725.4kbits/s speed=21.6x    \rframe=74549 fps=649 q=-1.0 size=  826794kB time=00:41:24.97 bitrate=2725.6kbits/s speed=21.6x    \rframe=74865 fps=649 q=-1.0 size=  830501kB time=00:41:35.49 bitrate=2726.3kbits/s speed=21.6x    \rframe=75169 fps=648 q=-1.0 size=  833885kB time=00:41:45.61 bitrate=2726.3kbits/s speed=21.6x    \rframe=75572 fps=648 q=-1.0 size=  838470kB time=00:41:59.06 bitrate=2726.7kbits/s speed=21.6x    \rframe=76033 fps=649 q=-1.0 size=  843648kB time=00:42:14.41 bitrate=2726.9kbits/s speed=21.6x    \rframe=76503 fps=650 q=-1.0 size=  849080kB time=00:42:30.06 bitrate=2727.6kbits/s speed=21.7x    \rframe=76843 fps=650 q=-1.0 size=  853004kB time=00:42:41.41 bitrate=2728.1kbits/s speed=21.7x    \rframe=77162 fps=650 q=-1.0 size=  856555kB time=00:42:52.07 bitrate=2728.1kbits/s speed=21.7x    \rframe=77447 fps=650 q=-1.0 size=  859840kB time=00:43:01.54 bitrate=2728.5kbits/s speed=21.7x    \rframe=77761 fps=649 q=-1.0 size=  863376kB time=00:43:12.02 bitrate=2728.7kbits/s speed=21.6x    \rframe=78049 fps=649 q=-1.0 size=  866697kB time=00:43:21.61 bitrate=2729.1kbits/s speed=21.6x    \rframe=78337 fps=648 q=-1.0 size=  869829kB time=00:43:31.22 bitrate=2728.8kbits/s speed=21.6x    \rframe=78625 fps=647 q=-1.0 size=  872862kB time=00:43:40.81 bitrate=2728.3kbits/s speed=21.6x    \rframe=79074 fps=648 q=-1.0 size=  878054kB time=00:43:55.76 bitrate=2729.0kbits/s speed=21.6x    \rframe=79489 fps=648 q=-1.0 size=  882790kB time=00:44:09.60 bitrate=2729.4kbits/s speed=21.6x    \rframe=79869 fps=648 q=-1.0 size=  887089kB time=00:44:22.30 bitrate=2729.6kbits/s speed=21.6x    \rframe=80122 fps=648 q=-1.0 size=  889969kB time=00:44:30.70 bitrate=2729.9kbits/s speed=21.6x    \rframe=80408 fps=647 q=-1.0 size=  892941kB time=00:44:40.25 bitrate=2729.2kbits/s speed=21.6x    \rframe=80929 fps=648 q=-1.0 size=  896999kB time=00:44:57.60 bitrate=2724.0kbits/s speed=21.6x    \rframe=81217 fps=648 q=-1.0 size=  900202kB time=00:45:07.21 bitrate=2724.0kbits/s speed=21.6x    \rframe=81507 fps=648 q=-1.0 size=  903567kB time=00:45:16.89 bitrate=2724.4kbits/s speed=21.6x    \rframe=81793 fps=647 q=-1.0 size=  906741kB time=00:45:26.41 bitrate=2724.5kbits/s speed=21.6x    \rframe=82177 fps=648 q=-1.0 size=  911115kB time=00:45:39.21 bitrate=2724.8kbits/s speed=21.6x    \rframe=82645 fps=649 q=-1.0 size=  916485kB time=00:45:54.86 bitrate=2725.3kbits/s speed=21.6x    \rframe=82945 fps=648 q=-1.0 size=  919854kB time=00:46:04.82 bitrate=2725.5kbits/s speed=21.6x    \rframe=83233 fps=647 q=-1.0 size=  923160kB time=00:46:14.41 bitrate=2725.8kbits/s speed=21.6x    \rframe=83542 fps=647 q=-1.0 size=  926567kB time=00:46:24.70 bitrate=2725.8kbits/s speed=21.6x    \rframe=83809 fps=643 q=-1.0 size=  929603kB time=00:46:33.61 bitrate=2726.0kbits/s speed=21.4x    \rframe=84385 fps=644 q=-1.0 size=  936169kB time=00:46:52.81 bitrate=2726.5kbits/s speed=21.5x    \rframe=84673 fps=644 q=-1.0 size=  939453kB time=00:47:02.40 bitrate=2726.7kbits/s speed=21.5x    \rframe=84961 fps=643 q=-1.0 size=  942686kB time=00:47:12.02 bitrate=2726.8kbits/s speed=21.4x    \rframe=85373 fps=644 q=-1.0 size=  947434kB time=00:47:25.74 bitrate=2727.4kbits/s speed=21.5x    \rframe=85727 fps=644 q=-1.0 size=  951456kB time=00:47:37.54 bitrate=2727.6kbits/s speed=21.5x    \rframe=86113 fps=644 q=-1.0 size=  955042kB time=00:47:50.40 bitrate=2725.6kbits/s speed=21.5x    \rframe=86401 fps=643 q=-1.0 size=  958259kB time=00:48:00.01 bitrate=2725.7kbits/s speed=21.4x    \rframe=86718 fps=643 q=-1.0 size=  961849kB time=00:48:10.60 bitrate=2725.9kbits/s speed=21.4x    \rframe=87092 fps=644 q=-1.0 size=  966144kB time=00:48:23.05 bitrate=2726.3kbits/s speed=21.5x    \rframe=87320 fps=643 q=-1.0 size=  968610kB time=00:48:30.64 bitrate=2726.2kbits/s speed=21.4x    \rframe=87696 fps=643 q=-1.0 size=  972950kB time=00:48:43.18 bitrate=2726.6kbits/s speed=21.4x    \rframe=88057 fps=643 q=-1.0 size=  976937kB time=00:48:55.21 bitrate=2726.6kbits/s speed=21.4x    \rframe=88417 fps=643 q=-1.0 size=  981077kB time=00:49:07.21 bitrate=2727.0kbits/s speed=21.4x    \rframe=88747 fps=643 q=-1.0 size=  984858kB time=00:49:18.24 bitrate=2727.3kbits/s speed=21.4x    \rframe=89016 fps=642 q=-1.0 size=  987892kB time=00:49:27.20 bitrate=2727.4kbits/s speed=21.4x    \rframe=89427 fps=643 q=-1.0 size=  992617kB time=00:49:40.90 bitrate=2727.9kbits/s speed=21.4x    \rframe=89789 fps=643 q=-1.0 size=  996654kB time=00:49:52.95 bitrate=2727.9kbits/s speed=21.4x    \rframe=90145 fps=643 q=-1.0 size= 1000697kB time=00:50:04.80 bitrate=2728.2kbits/s speed=21.4x    \rframe=90433 fps=643 q=-1.0 size= 1003995kB time=00:50:14.41 bitrate=2728.5kbits/s speed=21.4x    \rframe=90834 fps=643 q=-1.0 size= 1008590kB time=00:50:27.81 bitrate=2728.8kbits/s speed=21.4x    \rframe=91145 fps=643 q=-1.0 size= 1012111kB time=00:50:38.19 bitrate=2729.0kbits/s speed=21.4x    \rframe=91523 fps=643 q=-1.0 size= 1016445kB time=00:50:50.73 bitrate=2729.4kbits/s speed=21.4x    \rframe=91873 fps=643 q=-1.0 size= 1020362kB time=00:51:02.41 bitrate=2729.5kbits/s speed=21.4x    \rframe=92161 fps=642 q=-1.0 size= 1022975kB time=00:51:12.02 bitrate=2727.9kbits/s speed=21.4x    \rframe=92449 fps=642 q=-1.0 size= 1026203kB time=00:51:21.61 bitrate=2728.0kbits/s speed=21.4x    \rframe=92737 fps=642 q=-1.0 size= 1029479kB time=00:51:31.20 bitrate=2728.2kbits/s speed=21.4x    \rframe=93025 fps=641 q=-1.0 size= 1032751kB time=00:51:40.81 bitrate=2728.4kbits/s speed=21.4x    \rframe=93313 fps=641 q=-1.0 size= 1036005kB time=00:51:50.40 bitrate=2728.6kbits/s speed=21.4x    \rframe=93601 fps=641 q=-1.0 size= 1039280kB time=00:52:00.01 bitrate=2728.8kbits/s speed=21.4x    \rframe=93912 fps=640 q=-1.0 size= 1042841kB time=00:52:10.39 bitrate=2729.0kbits/s speed=21.3x    \rframe=94465 fps=641 q=-1.0 size= 1049153kB time=00:52:28.81 bitrate=2729.5kbits/s speed=21.4x    \rframe=94828 fps=642 q=-1.0 size= 1053301kB time=00:52:40.93 bitrate=2729.8kbits/s speed=21.4x    \rframe=95083 fps=641 q=-1.0 size= 1056128kB time=00:52:49.40 bitrate=2729.8kbits/s speed=21.4x    \rframe=95440 fps=641 q=-1.0 size= 1059869kB time=00:53:01.30 bitrate=2729.2kbits/s speed=21.4x    \rframe=95830 fps=642 q=-1.0 size= 1064284kB time=00:53:14.32 bitrate=2729.4kbits/s speed=21.4x    \rframe=96193 fps=642 q=-1.0 size= 1068415kB time=00:53:26.42 bitrate=2729.7kbits/s speed=21.4x    \rframe=96594 fps=642 q=-1.0 size= 1072949kB time=00:53:39.77 bitrate=2729.9kbits/s speed=21.4x    \rframe=96914 fps=642 q=-1.0 size= 1076618kB time=00:53:50.43 bitrate=2730.2kbits/s speed=21.4x    \rframe=97281 fps=642 q=-1.0 size= 1080789kB time=00:54:02.71 bitrate=2730.4kbits/s speed=21.4x    \rframe=97633 fps=642 q=-1.0 size= 1084816kB time=00:54:14.41 bitrate=2730.7kbits/s speed=21.4x    \rframe=97946 fps=642 q=-1.0 size= 1088219kB time=00:54:24.86 bitrate=2730.5kbits/s speed=21.4x    \rframe=98341 fps=642 q=-1.0 size= 1091957kB time=00:54:38.03 bitrate=2728.9kbits/s speed=21.4x    \rframe=98670 fps=642 q=-1.0 size= 1095757kB time=00:54:48.99 bitrate=2729.2kbits/s speed=21.4x    \rframe=98978 fps=642 q=-1.0 size= 1099261kB time=00:54:59.25 bitrate=2729.4kbits/s speed=21.4x    \rframe=99265 fps=642 q=-1.0 size= 1102062kB time=00:55:08.82 bitrate=2728.5kbits/s speed=21.4x    \rframe=99570 fps=642 q=-1.0 size= 1105571kB time=00:55:18.99 bitrate=2728.8kbits/s speed=21.4x    \rframe=99833 fps=642 q=-1.0 size= 1108554kB time=00:55:27.79 bitrate=2728.9kbits/s speed=21.4x    \rframe=100104 fps=641 q=-1.0 size= 1111446kB time=00:55:36.80 bitrate=2728.7kbits/s speed=21.4x    \rframe=100359 fps=641 q=-1.0 size= 1114433kB time=00:55:45.27 bitrate=2729.1kbits/s speed=21.4x    \rframe=100632 fps=640 q=-1.0 size= 1117295kB time=00:55:54.37 bitrate=2728.6kbits/s speed=21.3x    \rframe=100860 fps=640 q=-1.0 size= 1119932kB time=00:56:01.97 bitrate=2728.9kbits/s speed=21.3x    \rframe=101089 fps=639 q=-1.0 size= 1122467kB time=00:56:09.61 bitrate=2728.9kbits/s speed=21.3x    \rframe=101377 fps=639 q=-1.0 size= 1125207kB time=00:56:19.22 bitrate=2727.8kbits/s speed=21.3x    \rframe=101665 fps=639 q=-1.0 size= 1128487kB time=00:56:28.81 bitrate=2728.0kbits/s speed=21.3x    \rframe=101953 fps=638 q=-1.0 size= 1131529kB time=00:56:38.40 bitrate=2727.6kbits/s speed=21.3x    \rframe=102243 fps=638 q=-1.0 size= 1134926kB time=00:56:48.10 bitrate=2728.0kbits/s speed=21.3x    \rframe=102529 fps=638 q=-1.0 size= 1137843kB time=00:56:57.60 bitrate=2727.4kbits/s speed=21.3x    \rframe=102817 fps=637 q=-1.0 size= 1140917kB time=00:57:07.21 bitrate=2727.1kbits/s speed=21.2x    \rframe=102851 fps=634 q=-1.0 size= 1141316kB time=00:57:08.35 bitrate=2727.2kbits/s speed=21.1x    \rframe=103312 fps=635 q=-1.0 size= 1146594kB time=00:57:23.72 bitrate=2727.5kbits/s speed=21.2x    \rframe=103575 fps=634 q=-1.0 size= 1149533kB time=00:57:32.48 bitrate=2727.6kbits/s speed=21.1x    \rframe=103825 fps=634 q=-1.0 size= 1152375kB time=00:57:40.81 bitrate=2727.8kbits/s speed=21.1x    \rframe=104107 fps=634 q=-1.0 size= 1155571kB time=00:57:50.20 bitrate=2727.9kbits/s speed=21.1x    \rframe=104362 fps=633 q=-1.0 size= 1158497kB time=00:57:58.72 bitrate=2728.1kbits/s speed=21.1x    \rframe=104718 fps=634 q=-1.0 size= 1162352kB time=00:58:10.58 bitrate=2727.9kbits/s speed=21.1x    \rframe=104990 fps=633 q=-1.0 size= 1165306kB time=00:58:19.64 bitrate=2727.8kbits/s speed=21.1x    \rframe=105255 fps=633 q=-1.0 size= 1168293kB time=00:58:28.46 bitrate=2727.9kbits/s speed=21.1x    \rframe=105554 fps=633 q=-1.0 size= 1171618kB time=00:58:38.45 bitrate=2727.9kbits/s speed=21.1x    \rframe=105814 fps=632 q=-1.0 size= 1174556kB time=00:58:47.11 bitrate=2728.0kbits/s speed=21.1x    \rframe=106273 fps=633 q=-1.0 size= 1179779kB time=00:59:02.41 bitrate=2728.3kbits/s speed=21.1x    \rframe=106753 fps=634 q=-1.0 size= 1185266kB time=00:59:18.41 bitrate=2728.7kbits/s speed=21.1x    \rframe=107010 fps=633 q=-1.0 size= 1188221kB time=00:59:26.97 bitrate=2728.9kbits/s speed=21.1x    \rframe=107196 fps=633 q=-1.0 size= 1190067kB time=00:59:33.20 bitrate=2728.4kbits/s speed=21.1x    \rframe=107430 fps=632 q=-1.0 size= 1192799kB time=00:59:40.96 bitrate=2728.7kbits/s speed=21.1x    \rframe=107713 fps=632 q=-1.0 size= 1196002kB time=00:59:50.40 bitrate=2728.8kbits/s speed=21.1x    \rframe=108135 fps=632 q=-1.0 size= 1200820kB time=01:00:04.48 bitrate=2729.1kbits/s speed=21.1x    \rframe=108577 fps=633 q=-1.0 size= 1205545kB time=01:00:19.20 bitrate=2728.7kbits/s speed=21.1x    \rframe=108865 fps=632 q=-1.0 size= 1208845kB time=01:00:28.81 bitrate=2729.0kbits/s speed=21.1x    \rframe=109207 fps=632 q=-1.0 size= 1212729kB time=01:00:40.23 bitrate=2729.1kbits/s speed=21.1x    \rframe=109729 fps=633 q=-1.0 size= 1218316kB time=01:00:57.60 bitrate=2728.7kbits/s speed=21.1x    \rframe=110017 fps=632 q=-1.0 size= 1221584kB time=01:01:07.22 bitrate=2728.8kbits/s speed=21.1x    \rframe=110593 fps=633 q=-1.0 size= 1228174kB time=01:01:26.42 bitrate=2729.3kbits/s speed=21.1x    \rframe=110919 fps=633 q=-1.0 size= 1231792kB time=01:01:37.29 bitrate=2729.3kbits/s speed=21.1x    \rframe=111169 fps=633 q=-1.0 size= 1234688kB time=01:01:45.60 bitrate=2729.5kbits/s speed=21.1x    \rframe=111489 fps=633 q=-1.0 size= 1238337kB time=01:01:56.28 bitrate=2729.7kbits/s speed=21.1x    \rframe=111866 fps=633 q=-1.0 size= 1242617kB time=01:02:08.86 bitrate=2729.9kbits/s speed=21.1x    \rframe=112098 fps=633 q=-1.0 size= 1245272kB time=01:02:16.60 bitrate=2730.1kbits/s speed=21.1x    \rframe=112532 fps=633 q=-1.0 size= 1250188kB time=01:02:31.04 bitrate=2730.3kbits/s speed=21.1x    \rframe=112897 fps=633 q=-1.0 size= 1254337kB time=01:02:43.21 bitrate=2730.5kbits/s speed=21.1x    \rframe=113185 fps=633 q=-1.0 size= 1257628kB time=01:02:52.80 bitrate=2730.7kbits/s speed=21.1x    \rframe=113473 fps=632 q=-1.0 size= 1260892kB time=01:03:02.41 bitrate=2730.9kbits/s speed=21.1x    \rframe=113761 fps=632 q=-1.0 size= 1264187kB time=01:03:12.00 bitrate=2731.1kbits/s speed=21.1x    \rframe=114097 fps=632 q=-1.0 size= 1268014kB time=01:03:23.21 bitrate=2731.3kbits/s speed=21.1x    \rframe=114337 fps=632 q=-1.0 size= 1270651kB time=01:03:31.20 bitrate=2731.2kbits/s speed=21.1x    \rframe=114625 fps=631 q=-1.0 size= 1273949kB time=01:03:40.82 bitrate=2731.4kbits/s speed=  21x    \rframe=114978 fps=632 q=-1.0 size= 1277856kB time=01:03:52.56 bitrate=2731.4kbits/s speed=21.1x    \rframe=115204 fps=631 q=-1.0 size= 1280515kB time=01:04:00.10 bitrate=2731.7kbits/s speed=  21x    \rframe=115489 fps=631 q=-1.0 size= 1283718kB time=01:04:09.61 bitrate=2731.8kbits/s speed=  21x    \rframe=115823 fps=631 q=-1.0 size= 1287269kB time=01:04:20.75 bitrate=2731.4kbits/s speed=  21x    \rframe=116065 fps=631 q=-1.0 size= 1290013kB time=01:04:28.81 bitrate=2731.5kbits/s speed=  21x    \rframe=116364 fps=630 q=-1.0 size= 1293406kB time=01:04:38.77 bitrate=2731.7kbits/s speed=  21x    \rframe=116907 fps=632 q=-1.0 size= 1299514kB time=01:04:56.88 bitrate=2731.8kbits/s speed=21.1x    \rframe=117044 fps=631 q=-1.0 size= 1301110kB time=01:05:01.46 bitrate=2732.0kbits/s speed=  21x    \rframe=117217 fps=630 q=-1.0 size= 1302988kB time=01:05:07.22 bitrate=2731.9kbits/s speed=  21x    \rframe=117541 fps=630 q=-1.0 size= 1306576kB time=01:05:18.00 bitrate=2731.9kbits/s speed=  21x    \rframe=117805 fps=630 q=-1.0 size= 1309456kB time=01:05:26.81 bitrate=2731.7kbits/s speed=  21x    \rframe=118367 fps=631 q=-1.0 size= 1315611kB time=01:05:45.53 bitrate=2731.6kbits/s speed=  21x    \rframe=118657 fps=630 q=-1.0 size= 1318905kB time=01:05:55.21 bitrate=2731.7kbits/s speed=  21x    \rframe=118976 fps=630 q=-1.0 size= 1322418kB time=01:06:05.85 bitrate=2731.6kbits/s speed=  21x    \rframe=119521 fps=631 q=-1.0 size= 1328609kB time=01:06:24.01 bitrate=2731.9kbits/s speed=  21x    \rframe=120097 fps=632 q=-1.0 size= 1334277kB time=01:06:43.21 bitrate=2730.4kbits/s speed=21.1x    \rframe=120385 fps=632 q=-1.0 size= 1337601kB time=01:06:52.80 bitrate=2730.7kbits/s speed=21.1x    \rframe=120961 fps=633 q=-1.0 size= 1344115kB time=01:07:12.00 bitrate=2730.9kbits/s speed=21.1x    \rframe=121249 fps=632 q=-1.0 size= 1347435kB time=01:07:21.61 bitrate=2731.1kbits/s speed=21.1x    \rframe=121537 fps=632 q=-1.0 size= 1350682kB time=01:07:31.20 bitrate=2731.2kbits/s speed=21.1x    \rframe=121825 fps=632 q=-1.0 size= 1353989kB time=01:07:40.82 bitrate=2731.4kbits/s speed=21.1x    \rframe=122113 fps=628 q=-1.0 size= 1357281kB time=01:07:50.41 bitrate=2731.6kbits/s speed=20.9x    \rframe=122639 fps=629 q=-1.0 size= 1363223kB time=01:08:07.98 bitrate=2731.8kbits/s speed=  21x    \rframe=122977 fps=629 q=-1.0 size= 1367112kB time=01:08:19.20 bitrate=2732.1kbits/s speed=  21x    \rframe=123449 fps=630 q=-1.0 size= 1370591kB time=01:08:35.01 bitrate=2728.5kbits/s speed=  21x    \rframe=123827 fps=630 q=-1.0 Lsize= 1378136kB time=01:08:47.64 bitrate=2735.1kbits/s speed=  21x    \nvideo:1276701kB audio:98996kB subtitle:0kB other streams:0kB global headers:0kB muxing overhead: 0.177260%\n",
          "url": "https://cdn.pocketbeat.com/vod/smil:1064_2bd3138c4c00479c8c97473a8a9551d5-HD-68211677FD174239B6CD9897EF91DF7E.smil/playlist.m3u8",
          "target": "/home/david/btsync-data/nomudo-dl",
          "progress": "failure",
          "filename": "_playlist.mp4"
        },
        {
          "start": 1536601169448,
          "end": 1536601190233,
          "running": false,
          "out": "",
          "err": null,
          "url": "https://soundcloud.com/user-284301327/live-wavefield-001",
          "target": "/home/david/btsync-data/nomudo-dl",
          "progress": "success",
          "filename": "_Live @ Wavefield 001.mp3"
        },
        {
          "start": 1536668293613,
          "end": 1536668321282,
          "running": false,
          "out": "",
          "err": null,
          "url": "https://www.youtube.com/watch?v=7FTIPYH9HUI",
          "target": "/home/david/btsync-data/nomudo-dl",
          "progress": "success",
          "filename": "_Silicon Soul - Who Needs Sleep Tonight (Extended Mix).mp4"
        },
        {
          "start": 1536689400399,
          "end": 1536689406405,
          "running": false,
          "out": "",
          "err": null,
          "url": "https://darkdescent.bandcamp.com/track/engine",
          "target": "/home/david/btsync-data/nomudo-dl",
          "progress": "success",
          "filename": "_Stan Grewzell - Engine.mp3"
        },
        {
          "start": 1536689750291,
          "end": 1536689766342,
          "running": false,
          "out": "",
          "err": null,
          "url": "https://soundcloud.com/hardelectronic/helios-is-dead-merchant06",
          "target": "/home/david/btsync-data/nomudo-dl",
          "progress": "success",
          "filename": "_Helios Is Dead & Nekrokick - Merchant06.mp3"
        },
        {
          "start": 1536689794917,
          "end": 1536689829196,
          "running": false,
          "out": "",
          "err": null,
          "url": "https://www.youtube.com/watch?v=HqZnLJnGV4E",
          "target": "/home/david/btsync-data/nomudo-dl",
          "progress": "success",
          "filename": "_Ersatz Olfolks - Proxima Centauri.mp4"
        },
        {
          "start": 1537299728858,
          "end": 1537299758150,
          "running": false,
          "out": "",
          "err": null,
          "url": "https://www.youtube.com/watch?v=96FaX744TeY",
          "target": "/home/david/btsync-data/nomudo-dl",
          "progress": "success",
          "filename": "_Erolfa - Roy of the Ravers.mp4"
        },
        {
          "start": 1537300202673,
          "end": 1537300228086,
          "running": false,
          "out": "",
          "err": null,
          "url": "https://www.youtube.com/watch?v=mcwp19gfpE8",
          "target": "/home/david/btsync-data/nomudo-dl",
          "progress": "success",
          "filename": "_PHUTURE ASSASSIN - Ganja Madness (Backdraft rmx).mp4"
        },
        {
          "start": 1537636483281,
          "end": 1537636523609,
          "running": false,
          "out": "",
          "err": null,
          "url": "https://www.youtube.com/watch?v=hLzd_tZDGvo&feature=youtu.be",
          "target": "/home/david/btsync-data/nomudo-dl",
          "progress": "success",
          "filename": "_I Hate Models - Pray For Lust [RAWC1].mp4"
        },
        {
          "start": 1537652554392,
          "end": 1537652583611,
          "running": false,
          "out": "",
          "err": null,
          "url": "https://www.youtube.com/watch?v=btOstAZFJTI",
          "target": "/home/david/btsync-data/nomudo-dl",
          "progress": "success",
          "filename": "_Drexciya--Andreaen Sand Dunes.mp4"
        }
      ]
    }
  ]
}